<svg xmlns="http://www.w3.org/2000/svg" viewBox="0 0 800 450" font-family="ui-sans-serif, system-ui">
<rect width="800" height="450" fill="#ffffff"/>
<line x1="80" y1="368" x2="770" y2="368" stroke="#e5e5ea" stroke-width="1"/>
<text x="72" y="372" text-anchor="end" fill="#666" font-size="11" font-family="ui-monospace">0</text>
<line x1="80" y1="300" x2="770" y2="300" stroke="#e5e5ea" stroke-width="1"/>
<text x="72" y="304" text-anchor="end" fill="#666" font-size="11" font-family="ui-monospace">10</text>
<line x1="80" y1="233" x2="770" y2="233" stroke="#e5e5ea" stroke-width="1"/>
<text x="72" y="237" text-anchor="end" fill="#666" font-size="11" font-family="ui-monospace">20</text>
<line x1="80" y1="166" x2="770" y2="166" stroke="#e5e5ea" stroke-width="1"/>
<text x="72" y="170" text-anchor="end" fill="#666" font-size="11" font-family="ui-monospace">30</text>
<line x1="80" y1="99" x2="770" y2="99" stroke="#e5e5ea" stroke-width="1"/>
<text x="72" y="103" text-anchor="end" fill="#666" font-size="11" font-family="ui-monospace">40</text>
<line x1="80" y1="32" x2="770" y2="32" stroke="#e5e5ea" stroke-width="1"/>
<text x="72" y="36" text-anchor="end" fill="#666" font-size="11" font-family="ui-monospace">50</text>
<text x="72" y="21" text-anchor="end" fill="#444" font-size="11" font-family="ui-monospace">avis</text>
<rect x="102" y="92" width="66" height="275" fill="#10b981" rx="3"/>
<text x="136" y="86" text-anchor="middle" fill="#0a0a0e" font-size="11" font-family="ui-monospace">41</text>
<text data-axe="x" x="138" y="389.5" text-anchor="middle" fill="#444" font-size="11">Biosimilaires</text>
<rect x="218" y="113" width="66" height="255" fill="#10b981" rx="3"/>
<text x="250" y="107" text-anchor="middle" fill="#0a0a0e" font-size="11" font-family="ui-monospace">38</text>
<text data-axe="x" x="252" y="389.5" text-anchor="middle" fill="#444" font-size="11">Nouvelles</text>
<text data-axe="x" x="252" y="402" text-anchor="middle" fill="#444" font-size="11">substances actives</text>
<rect x="332" y="260" width="66" height="107" fill="#10b981" rx="3"/>
<text x="366" y="254" text-anchor="middle" fill="#0a0a0e" font-size="11" font-family="ui-monospace">16</text>
<text data-axe="x" x="368" y="389.5" text-anchor="middle" fill="#444" font-size="11">Médicaments</text>
<text data-axe="x" x="368" y="402" text-anchor="middle" fill="#444" font-size="11">orphelins</text>
<rect x="448" y="300" width="66" height="67" fill="#10b981" rx="3"/>
<text x="480" y="294" text-anchor="middle" fill="#0a0a0e" font-size="11" font-family="ui-monospace">10</text>
<text data-axe="x" x="482" y="389.5" text-anchor="middle" fill="#444" font-size="11">Génériques</text>
<rect x="562" y="327" width="66" height="40" fill="#10b981" rx="3"/>
<text x="596" y="321" text-anchor="middle" fill="#0a0a0e" font-size="11" font-family="ui-monospace">6</text>
<text data-axe="x" x="598" y="389.5" text-anchor="middle" fill="#444" font-size="11">Designations</text>
<text data-axe="x" x="598" y="402" text-anchor="middle" fill="#444" font-size="11">PRIME</text>
<rect x="678" y="341" width="66" height="27" fill="#10b981" rx="3"/>
<text x="710" y="335" text-anchor="middle" fill="#0a0a0e" font-size="11" font-family="ui-monospace">4</text>
<text data-axe="x" x="712" y="389.5" text-anchor="middle" fill="#444" font-size="11">Therapies</text>
<text data-axe="x" x="712" y="402" text-anchor="middle" fill="#444" font-size="11">innovantes</text>
</svg>