<svg xmlns="http://www.w3.org/2000/svg" viewBox="0 0 800 450" font-family="ui-sans-serif, system-ui">
<rect width="800" height="450" fill="#ffffff"/>
<line x1="80" y1="380" x2="770" y2="380" stroke="#e5e5ea" stroke-width="1"/>
<text x="72" y="384" text-anchor="end" fill="#666" font-size="11" font-family="ui-monospace">0</text>
<line x1="80" y1="322" x2="770" y2="322" stroke="#e5e5ea" stroke-width="1"/>
<text x="72" y="326" text-anchor="end" fill="#666" font-size="11" font-family="ui-monospace">20</text>
<line x1="80" y1="264" x2="770" y2="264" stroke="#e5e5ea" stroke-width="1"/>
<text x="72" y="268" text-anchor="end" fill="#666" font-size="11" font-family="ui-monospace">40</text>
<line x1="80" y1="206" x2="770" y2="206" stroke="#e5e5ea" stroke-width="1"/>
<text x="72" y="210" text-anchor="end" fill="#666" font-size="11" font-family="ui-monospace">60</text>
<line x1="80" y1="148" x2="770" y2="148" stroke="#e5e5ea" stroke-width="1"/>
<text x="72" y="152" text-anchor="end" fill="#666" font-size="11" font-family="ui-monospace">80</text>
<line x1="80" y1="90" x2="770" y2="90" stroke="#e5e5ea" stroke-width="1"/>
<text x="72" y="94" text-anchor="end" fill="#666" font-size="11" font-family="ui-monospace">100</text>
<line x1="80" y1="32" x2="770" y2="32" stroke="#e5e5ea" stroke-width="1"/>
<text x="72" y="36" text-anchor="end" fill="#666" font-size="11" font-family="ui-monospace">120</text>
<text x="72" y="21" text-anchor="end" fill="#444" font-size="11" font-family="ui-monospace">Md$</text>
<rect x="114" y="109" width="66" height="271" fill="#10b981" rx="3"/>
<text x="147" y="103" text-anchor="middle" fill="#0a0a0e" font-size="11" font-family="ui-monospace">93,3 Md$</text>
<text x="149" y="402" text-anchor="middle" fill="#444" font-size="11">2021</text>
<rect x="252" y="65" width="66" height="315" fill="#10b981" rx="3"/>
<text x="285" y="59" text-anchor="middle" fill="#0a0a0e" font-size="11" font-family="ui-monospace">108,6 Md$</text>
<text x="287" y="402" text-anchor="middle" fill="#444" font-size="11">2022</text>
<rect x="390" y="145" width="66" height="235" fill="#10b981" rx="3"/>
<text x="423" y="139" text-anchor="middle" fill="#0a0a0e" font-size="11" font-family="ui-monospace">81,1 Md$</text>
<text x="425" y="402" text-anchor="middle" fill="#444" font-size="11">2023</text>
<rect x="528" y="45" width="66" height="335" fill="#10b981" rx="3"/>
<text x="561" y="39" text-anchor="middle" fill="#0a0a0e" font-size="11" font-family="ui-monospace">115,6 Md$</text>
<text x="563" y="402" text-anchor="middle" fill="#444" font-size="11">2024</text>
<rect x="666" y="81" width="66" height="299" fill="#10b981" rx="3"/>
<text x="699" y="75" text-anchor="middle" fill="#0a0a0e" font-size="11" font-family="ui-monospace">103,1 Md$</text>
<text x="701" y="402" text-anchor="middle" fill="#444" font-size="11">2025</text>
</svg>