<svg xmlns="http://www.w3.org/2000/svg" viewBox="0 0 800 450" font-family="ui-sans-serif, system-ui, -apple-system, sans-serif">
<rect width="800" height="450" fill="#0a0a0e"/>
<line x1="60" y1="80" x2="60" y2="360" stroke="#1f1f24"/>
  <line x1="60" y1="360" x2="760" y2="360" stroke="#1f1f24"/>
  <line x1="60" y1="360.0" x2="760" y2="360.0" stroke="#1f1f24" stroke-dasharray="2,3" opacity="0.4"/>
  <text x="52" y="364.0" fill="#888888" font-size="11" text-anchor="end">0.0</text>
  <line x1="60" y1="290.0" x2="760" y2="290.0" stroke="#1f1f24" stroke-dasharray="2,3" opacity="0.4"/>
  <text x="52" y="294.0" fill="#888888" font-size="11" text-anchor="end">2.9</text>
  <line x1="60" y1="220.0" x2="760" y2="220.0" stroke="#1f1f24" stroke-dasharray="2,3" opacity="0.4"/>
  <text x="52" y="224.0" fill="#888888" font-size="11" text-anchor="end">5.8</text>
  <line x1="60" y1="150.0" x2="760" y2="150.0" stroke="#1f1f24" stroke-dasharray="2,3" opacity="0.4"/>
  <text x="52" y="154.0" fill="#888888" font-size="11" text-anchor="end">8.6</text>
  <line x1="60" y1="80.0" x2="760" y2="80.0" stroke="#1f1f24" stroke-dasharray="2,3" opacity="0.4"/>
  <text x="52" y="84.0" fill="#888888" font-size="11" text-anchor="end">11.5</text>
  <rect x="66.2" y="116.5" width="28.8" height="243.5" fill="#a78bfa" rx="2"/>
  <text x="80.6" y="112.5" fill="#fafafa" font-size="10" text-anchor="middle">10</text>
  <text x="80.6" y="378.0" fill="#888888" font-size="9" text-anchor="middle" transform="rotate(-35 80.6 378.0)">Ads/Mkt</text>
  <rect x="107.4" y="116.5" width="28.8" height="243.5" fill="#a78bfa" rx="2"/>
  <text x="121.8" y="112.5" fill="#fafafa" font-size="10" text-anchor="middle">10</text>
  <text x="121.8" y="378.0" fill="#888888" font-size="9" text-anchor="middle" transform="rotate(-35 121.8 378.0)">Legal</text>
  <rect x="148.5" y="238.3" width="28.8" height="121.7" fill="#a78bfa" rx="2"/>
  <text x="162.9" y="234.3" fill="#fafafa" font-size="10" text-anchor="middle">5</text>
  <text x="162.9" y="378.0" fill="#888888" font-size="9" text-anchor="middle" transform="rotate(-35 162.9 378.0)">Consulting</text>
  <rect x="189.7" y="262.6" width="28.8" height="97.4" fill="#a78bfa" rx="2"/>
  <text x="204.1" y="258.6" fill="#fafafa" font-size="10" text-anchor="middle">4</text>
  <text x="204.1" y="378.0" fill="#888888" font-size="9" text-anchor="middle" transform="rotate(-35 204.1 378.0)">Education</text>
  <rect x="230.9" y="262.6" width="28.8" height="97.4" fill="#a78bfa" rx="2"/>
  <text x="245.3" y="258.6" fill="#fafafa" font-size="10" text-anchor="middle">4</text>
  <text x="245.3" y="378.0" fill="#888888" font-size="9" text-anchor="middle" transform="rotate(-35 245.3 378.0)">Architecture</text>
  <rect x="272.1" y="262.6" width="28.8" height="97.4" fill="#a78bfa" rx="2"/>
  <text x="286.5" y="258.6" fill="#fafafa" font-size="10" text-anchor="middle">4</text>
  <text x="286.5" y="378.0" fill="#888888" font-size="9" text-anchor="middle" transform="rotate(-35 286.5 378.0)">Gaming</text>
  <rect x="313.2" y="262.6" width="28.8" height="97.4" fill="#a78bfa" rx="2"/>
  <text x="327.6" y="258.6" fill="#fafafa" font-size="10" text-anchor="middle">4</text>
  <text x="327.6" y="378.0" fill="#888888" font-size="9" text-anchor="middle" transform="rotate(-35 327.6 378.0)">Accounting</text>
  <rect x="354.4" y="287.0" width="28.8" height="73.0" fill="#a78bfa" rx="2"/>
  <text x="368.8" y="283.0" fill="#fafafa" font-size="10" text-anchor="middle">3</text>
  <text x="368.8" y="378.0" fill="#888888" font-size="9" text-anchor="middle" transform="rotate(-35 368.8 378.0)">Construction</text>
  <rect x="395.6" y="287.0" width="28.8" height="73.0" fill="#a78bfa" rx="2"/>
  <text x="410.0" y="283.0" fill="#fafafa" font-size="10" text-anchor="middle">3</text>
  <text x="410.0" y="378.0" fill="#888888" font-size="9" text-anchor="middle" transform="rotate(-35 410.0 378.0)">Retail</text>
  <rect x="436.8" y="287.0" width="28.8" height="73.0" fill="#a78bfa" rx="2"/>
  <text x="451.2" y="283.0" fill="#fafafa" font-size="10" text-anchor="middle">3</text>
  <text x="451.2" y="378.0" fill="#888888" font-size="9" text-anchor="middle" transform="rotate(-35 451.2 378.0)">Telecom</text>
  <rect x="477.9" y="287.0" width="28.8" height="73.0" fill="#a78bfa" rx="2"/>
  <text x="492.4" y="283.0" fill="#fafafa" font-size="10" text-anchor="middle">3</text>
  <text x="492.4" y="378.0" fill="#888888" font-size="9" text-anchor="middle" transform="rotate(-35 492.4 378.0)">Entertainment</text>
  <rect x="519.1" y="287.0" width="28.8" height="73.0" fill="#a78bfa" rx="2"/>
  <text x="533.5" y="283.0" fill="#fafafa" font-size="10" text-anchor="middle">3</text>
  <text x="533.5" y="378.0" fill="#888888" font-size="9" text-anchor="middle" transform="rotate(-35 533.5 378.0)">Real Estate</text>
  <rect x="560.3" y="287.0" width="28.8" height="73.0" fill="#a78bfa" rx="2"/>
  <text x="574.7" y="283.0" fill="#fafafa" font-size="10" text-anchor="middle">3</text>
  <text x="574.7" y="378.0" fill="#888888" font-size="9" text-anchor="middle" transform="rotate(-35 574.7 378.0)">Finance</text>
  <rect x="601.5" y="287.0" width="28.8" height="73.0" fill="#a78bfa" rx="2"/>
  <text x="615.9" y="283.0" fill="#fafafa" font-size="10" text-anchor="middle">3</text>
  <text x="615.9" y="378.0" fill="#888888" font-size="9" text-anchor="middle" transform="rotate(-35 615.9 378.0)">Supply Ch.</text>
  <rect x="642.6" y="311.3" width="28.8" height="48.7" fill="#a78bfa" rx="2"/>
  <text x="657.1" y="307.3" fill="#fafafa" font-size="10" text-anchor="middle">2</text>
  <text x="657.1" y="378.0" fill="#888888" font-size="9" text-anchor="middle" transform="rotate(-35 657.1 378.0)">Healthcare</text>
  <rect x="683.8" y="311.3" width="28.8" height="48.7" fill="#a78bfa" rx="2"/>
  <text x="698.2" y="307.3" fill="#fafafa" font-size="10" text-anchor="middle">2</text>
  <text x="698.2" y="378.0" fill="#888888" font-size="9" text-anchor="middle" transform="rotate(-35 698.2 378.0)">Hospitality</text>
  <rect x="725.0" y="335.7" width="28.8" height="24.3" fill="#a78bfa" rx="2"/>
  <text x="739.4" y="331.7" fill="#fafafa" font-size="10" text-anchor="middle">1</text>
  <text x="739.4" y="378.0" fill="#888888" font-size="9" text-anchor="middle" transform="rotate(-35 739.4 378.0)">Manufacturing</text>
</svg>
