<svg xmlns="http://www.w3.org/2000/svg" viewBox="0 0 800 450" font-family="ui-sans-serif, system-ui">
<rect width="800" height="450" fill="#0a0a0e"/>
<line x1="80" y1="380" x2="770" y2="380" stroke="#1f1f24" stroke-width="1"/>
<text x="72" y="384" text-anchor="end" fill="#888" font-size="11" font-family="ui-monospace">0</text>
<line x1="80" y1="322" x2="770" y2="322" stroke="#1f1f24" stroke-width="1"/>
<text x="72" y="326" text-anchor="end" fill="#888" font-size="11" font-family="ui-monospace">500</text>
<line x1="80" y1="264" x2="770" y2="264" stroke="#1f1f24" stroke-width="1"/>
<text x="72" y="268" text-anchor="end" fill="#888" font-size="11" font-family="ui-monospace">1 000</text>
<line x1="80" y1="206" x2="770" y2="206" stroke="#1f1f24" stroke-width="1"/>
<text x="72" y="210" text-anchor="end" fill="#888" font-size="11" font-family="ui-monospace">1 500</text>
<line x1="80" y1="148" x2="770" y2="148" stroke="#1f1f24" stroke-width="1"/>
<text x="72" y="152" text-anchor="end" fill="#888" font-size="11" font-family="ui-monospace">2 000</text>
<line x1="80" y1="90" x2="770" y2="90" stroke="#1f1f24" stroke-width="1"/>
<text x="72" y="94" text-anchor="end" fill="#888" font-size="11" font-family="ui-monospace">2 500</text>
<line x1="80" y1="32" x2="770" y2="32" stroke="#1f1f24" stroke-width="1"/>
<text x="72" y="36" text-anchor="end" fill="#888" font-size="11" font-family="ui-monospace">3 000</text>
<text x="72" y="21" text-anchor="end" fill="#bbb" font-size="11" font-family="ui-monospace">TWh</text>
<rect x="160" y="350" width="66" height="30" fill="#f59e0b" rx="3"/>
<text x="193" y="344" text-anchor="middle" fill="#fafafa" font-size="11" font-family="ui-monospace">256 TWh</text>
<text x="195" y="402" text-anchor="middle" fill="#bbb" font-size="11">2015</text>
<rect x="390" y="225" width="66" height="155" fill="#f59e0b" rx="3"/>
<text x="423" y="219" text-anchor="middle" fill="#fafafa" font-size="11" font-family="ui-monospace">1 333 TWh</text>
<text x="425" y="402" text-anchor="middle" fill="#bbb" font-size="11">2022</text>
<rect x="620" y="58" width="66" height="322" fill="#f59e0b" rx="3"/>
<text x="653" y="52" text-anchor="middle" fill="#fafafa" font-size="11" font-family="ui-monospace">2 778 TWh</text>
<text x="655" y="402" text-anchor="middle" fill="#bbb" font-size="11">2025</text>
</svg>