<svg xmlns="http://www.w3.org/2000/svg" viewBox="0 0 800 450" font-family="ui-sans-serif, system-ui">
<rect width="800" height="450" fill="#ffffff"/>
<line x1="80" y1="368" x2="770" y2="368" stroke="#e5e5ea" stroke-width="1"/>
<text x="72" y="372" text-anchor="end" fill="#666" font-size="11" font-family="ui-monospace">0</text>
<line x1="80" y1="284" x2="770" y2="284" stroke="#e5e5ea" stroke-width="1"/>
<text x="72" y="288" text-anchor="end" fill="#666" font-size="11" font-family="ui-monospace">25</text>
<line x1="80" y1="200" x2="770" y2="200" stroke="#e5e5ea" stroke-width="1"/>
<text x="72" y="204" text-anchor="end" fill="#666" font-size="11" font-family="ui-monospace">50</text>
<line x1="80" y1="116" x2="770" y2="116" stroke="#e5e5ea" stroke-width="1"/>
<text x="72" y="120" text-anchor="end" fill="#666" font-size="11" font-family="ui-monospace">75</text>
<line x1="80" y1="32" x2="770" y2="32" stroke="#e5e5ea" stroke-width="1"/>
<text x="72" y="36" text-anchor="end" fill="#666" font-size="11" font-family="ui-monospace">100</text>
<text x="72" y="21" text-anchor="end" fill="#444" font-size="12" font-family="ui-monospace">%</text>
<rect x="131" y="163" width="66" height="205" fill="#a78bfa" rx="3"/>
<text x="164" y="157" text-anchor="middle" fill="#0a0a0e" font-size="11" font-family="ui-monospace">61</text>
<text data-axe="x" x="166" y="389.5" text-anchor="middle" fill="#444" font-size="11">Inscription automatique, tous</text>
<text data-axe="x" x="166" y="402" text-anchor="middle" fill="#444" font-size="11">plans</text>
<rect x="304" y="102" width="66" height="265" fill="#a78bfa" rx="3"/>
<text x="337" y="96" text-anchor="middle" fill="#0a0a0e" font-size="11" font-family="ui-monospace">79</text>
<text data-axe="x" x="339" y="389.5" text-anchor="middle" fill="#444" font-size="11">Inscription automatique, plans</text>
<text data-axe="x" x="339" y="402" text-anchor="middle" fill="#444" font-size="11">de 1 000 participants et plus</text>
<rect x="476" y="159" width="66" height="208" fill="#a78bfa" rx="3"/>
<text x="509" y="153" text-anchor="middle" fill="#0a0a0e" font-size="11" font-family="ui-monospace">62</text>
<text data-axe="x" x="511" y="389.5" text-anchor="middle" fill="#444" font-size="11">Cotisation par défaut de 4 %</text>
<text data-axe="x" x="511" y="402" text-anchor="middle" fill="#444" font-size="11">ou plus</text>
<rect x="649" y="129" width="66" height="238" fill="#a78bfa" rx="3"/>
<text x="682" y="123" text-anchor="middle" fill="#0a0a0e" font-size="11" font-family="ui-monospace">71</text>
<text data-axe="x" x="684" y="389.5" text-anchor="middle" fill="#444" font-size="11">Augmentation automatique</text>
<text data-axe="x" x="684" y="402" text-anchor="middle" fill="#444" font-size="11">annuelle</text>
</svg>